<?xml version="1.0" encoding="utf-8"?>
<!-- Generator: Adobe Illustrator 18.1.1, SVG Export Plug-In . SVG Version: 6.00 Build 0)  -->
<svg version="1.2" baseProfile="tiny" id="Réteg_1"
	 xmlns="http://www.w3.org/2000/svg" xmlns:xlink="http://www.w3.org/1999/xlink" x="0px" y="0px" viewBox="0 0 415.2 76.5"
	 xml:space="preserve">
<g>
	<path fill="#4A2A15" d="M20.7,75.8c-3.3,0-6.2-0.5-8.7-1.5c-2.6-1-4.7-2.5-6.5-4.5c-1.8-2-3.1-4.5-4-7.5C0.5,59.3,0,55.9,0,52
		c0-3,0.3-6.1,0.9-9.2s1.4-6.1,2.5-9.1c1.1-3,2.3-5.9,3.8-8.7s3.1-5.4,4.9-7.9c1.8-2.5,3.7-4.7,5.7-6.8c2-2,4.1-3.8,6.2-5.3
		c2.1-1.5,4.3-2.6,6.5-3.4c2.2-0.8,4.3-1.2,6.4-1.2c2.4,0,4.5,0.3,6.2,0.9c1.7,0.6,3.1,1.5,4.2,2.6C48.4,5,49.2,6.4,49.7,8
		c0.5,1.6,0.8,3.5,0.8,5.6c0,1.5-0.2,3-0.5,4.5c-0.3,1.5-0.7,3-1.3,4.4c-0.5,1.4-1.2,2.7-2,3.9c-0.8,1.2-1.6,2.3-2.6,3.2
		c-0.9,0.9-2,1.6-3,2.1c-1.1,0.5-2.2,0.8-3.3,0.8c-0.6,0-1.1,0-1.6-0.1S35.4,32.1,35,32c-0.3-0.2-0.6-0.3-0.8-0.6
		c-0.2-0.2-0.4-0.5-0.5-0.8c0.3-0.6,0.5-1.3,0.7-2.1c0.2-0.8,0.4-1.5,0.6-2.3s0.3-1.6,0.5-2.4c0.1-0.8,0.3-1.6,0.4-2.3
		c0.1-0.7,0.2-1.4,0.2-2c0-0.6,0.1-1.1,0.1-1.4c0-1.1-0.1-2.1-0.3-2.9s-0.4-1.4-0.7-1.9c-0.3-0.5-0.6-0.8-1-1.1
		c-0.4-0.2-0.9-0.3-1.3-0.3c-0.7,0-1.4,0.3-2.2,0.8s-1.6,1.3-2.5,2.4c-0.9,1-1.7,2.2-2.6,3.6c-0.9,1.4-1.7,3-2.5,4.7
		s-1.6,3.5-2.3,5.5c-0.7,1.9-1.3,3.9-1.9,6s-0.9,4.2-1.3,6.3S17,45.6,17,47.7c0,2.3,0.2,4.3,0.5,6.1c0.4,1.7,1,3.2,1.8,4.3
		c0.9,1.2,2,2,3.4,2.6s3.2,0.9,5.3,0.9c2,0,4.2-0.4,6.4-1.1c2.2-0.8,4.4-1.8,6.5-3.2c2.1-1.3,4.2-3,6.1-4.8c1.9-1.9,3.6-3.9,5.1-6.2
		c0.5,0,1,0.1,1.4,0.2c0.5,0.1,0.8,0.3,1.2,0.5c0.3,0.2,0.6,0.6,0.8,1c0.2,0.4,0.3,0.9,0.3,1.5c0,0.9-0.3,2-0.8,3.3
		c-0.5,1.3-1.3,2.6-2.3,4c-1,1.4-2.2,2.9-3.5,4.4s-2.9,3-4.6,4.4c-1.7,1.4-3.5,2.8-5.4,4c-1.9,1.3-3.9,2.4-5.9,3.3
		c-2.1,0.9-4.2,1.7-6.3,2.3C25,75.5,22.8,75.8,20.7,75.8z"/>
</g>
<polyline fill="#4A2A15" points="187.5,51.5 175.3,56.3 174,64.2 187.5,57.9 187.5,52.2 "/>
<g>
	<path fill="#4A2A15" d="M186,53.8c0.7-6.1,1.4-11.6,2.1-16.4s1.5-9.2,2.3-13c0.8-3.8,1.8-7,2.8-9.7c1-2.7,2.2-5,3.5-6.7
		c1.3-1.7,2.7-3,4.4-3.9c1.6-0.8,3.4-1.3,5.5-1.3c1,0,2,0.1,2.8,0.4c0.8,0.3,1.6,0.7,2.2,1.2c0.6,0.6,1.1,1.3,1.4,2.2
		c0.3,0.9,0.5,1.9,0.5,3.2c0,0.7-0.1,1.5-0.2,2.3c-0.1,0.8-0.3,1.7-0.6,2.7c-0.3,1-0.7,2.1-1.1,3.3c-0.5,1.2-1,2.6-1.7,4.1
		s-1.5,3.2-2.4,5.1c-0.9,1.9-2,3.9-3.2,6.3c-0.5,1.1-1.1,2.2-1.6,3.5c-0.5,1.3-1,2.6-1.4,3.9s-0.8,2.6-1.1,3.9
		c-0.3,1.3-0.6,2.4-0.7,3.5l6.5-2.7c0.5-1,1-2.1,1.6-3.1s1.2-2,1.8-2.9c1.1-1.5,2.1-2.8,3-3.8c0.9-1,1.8-1.8,2.6-2.5
		c0.8-0.6,1.5-1.1,2.2-1.3c0.7-0.3,1.4-0.4,2-0.4c1.2,0,2.2,0.2,3.1,0.7c0.9,0.4,1.6,1,2.2,1.8c0.6,0.7,1,1.5,1.3,2.4
		c0.3,0.9,0.4,1.8,0.4,2.7c0,0.7,0,1.4-0.1,2c-0.1,0.6-0.3,1.1-0.5,1.6c-0.3,0.5-0.7,1-1.2,1.4c-0.5,0.5-1.2,1-2,1.5
		s-1.9,1.1-3.1,1.7s-2.6,1.4-4.3,2.2c0,2.6,0.1,4.9,0.2,6.7s0.3,3.3,0.6,4.4c0.3,1.1,0.6,1.9,1,2.4s0.9,0.7,1.5,0.7
		c0.6,0,1.4-0.3,2.2-0.8c0.8-0.5,1.8-1.4,2.8-2.5c1.1-1.1,2.3-2.6,3.6-4.4c1.4-1.8,2.9-3.9,4.6-6.3c0.5,0,0.9,0.1,1.4,0.2
		c0.5,0.1,0.9,0.3,1.2,0.6c0.4,0.3,0.6,0.6,0.9,0.9s0.3,0.8,0.3,1.3c0,0.7-0.2,1.6-0.7,2.6c-0.4,1.1-1.1,2.2-1.8,3.5
		c-0.8,1.3-1.7,2.6-2.7,3.9c-1.1,1.4-2.2,2.7-3.4,4c-1.2,1.3-2.5,2.6-3.8,3.8s-2.7,2.2-4,3.1s-2.6,1.6-3.9,2.1
		c-1.3,0.5-2.5,0.8-3.6,0.8c-1.6,0-2.9-0.3-4-0.8c-1.1-0.5-2-1.4-2.7-2.6s-1.2-2.8-1.5-4.7c-0.3-1.9-0.5-4.2-0.5-7
		c0-1.2,0-2.4,0.1-3.7c0.1-1.2,0.2-2.4,0.3-3.5l-4.4,1.8c-0.1,1.1-0.2,2.2-0.3,3.3c-0.1,1.1-0.1,2.3-0.2,3.7s-0.1,2.8-0.1,4.4
		c0,1.6-0.1,3.4-0.1,5.5c-0.5,0.6-1.3,1-2.1,1.4s-1.9,0.5-3,0.5c-0.9,0-1.8-0.1-2.7-0.4s-1.7-0.6-2.4-1.1c-0.7-0.5-1.4-1.1-2-1.7
		s-1.1-1.4-1.5-2.1s-0.8-1.6-1-2.4c-0.2-0.8-0.4-1.7-0.4-2.5c0-1.5,0.2-3.1,0.7-4.9C184,57.8,184.8,55.9,186,53.8z"/>
	<path fill="#4A2A15" d="M231.6,53.2c-0.4-0.9-0.7-1.9-0.8-3c-0.1-1.1-0.2-2.1-0.2-3.1c0-1,0.2-2,0.7-3.2c0.4-1.2,1-2.3,1.8-3.5
		s1.6-2.3,2.6-3.4c1-1.1,2-2.1,3.1-3c1.1-0.9,2.2-1.6,3.3-2.1c1.1-0.5,2.2-0.8,3.2-0.8c1.1,0,2,0.1,2.7,0.4c0.6,0.3,1.1,0.7,1.5,1.3
		c0.3,0.5,0.5,1.2,0.6,2c0.1,0.8,0.1,1.6,0.1,2.6c0,0.6-0.1,1.4-0.3,2.2s-0.4,1.7-0.8,2.6s-0.7,1.9-1.1,2.9c-0.4,1-0.8,2-1.3,3
		c-0.7,1.7-1.3,3.2-1.8,4.4s-0.9,2.4-1.3,3.3c-0.3,1-0.6,1.8-0.7,2.5c-0.2,0.7-0.2,1.3-0.2,1.9c0,0.5,0.1,0.9,0.4,1.1
		c0.2,0.2,0.6,0.3,1,0.3c0.3,0,0.9-0.2,1.6-0.6c0.7-0.4,1.6-1.1,2.6-2.1s2.2-2.2,3.6-3.8c1.4-1.6,2.9-3.5,4.5-5.8
		c0.5,0,0.9,0.1,1.4,0.3s0.9,0.4,1.2,0.8c0.4,0.3,0.6,0.7,0.9,1.1c0.2,0.4,0.3,0.9,0.3,1.4c0,0.8-0.2,1.7-0.7,2.7
		c-0.5,1.1-1.1,2.2-1.9,3.4c-0.8,1.2-1.7,2.5-2.8,3.7c-1.1,1.3-2.2,2.5-3.5,3.8c-1.2,1.2-2.6,2.4-3.9,3.5c-1.4,1.1-2.7,2-4.1,2.9
		c-1.4,0.8-2.7,1.5-4,2c-1.3,0.5-2.5,0.7-3.6,0.7c-1.4,0-2.6-0.2-3.6-0.5c-1-0.3-1.8-0.8-2.4-1.5c-0.6-0.7-1-1.5-1.3-2.5
		s-0.4-2.2-0.4-3.5c0-1.1,0.1-2.1,0.2-3.2c0.1-1.1,0.3-2.2,0.6-3.3c0.3-1.1,0.7-2.4,1.1-3.6C230.5,56.1,231,54.7,231.6,53.2z
		 M244.2,16.1c0-2,0.1-3.7,0.3-5c0.2-1.4,0.5-2.5,0.9-3.3c0.4-0.8,0.9-1.5,1.5-1.8c0.6-0.4,1.3-0.6,2.1-0.6c0.7,0,1.3,0.1,2,0.3
		c0.7,0.2,1.3,0.5,1.9,0.9s1.2,0.8,1.7,1.3c0.5,0.5,1,1,1.4,1.6c0.4,0.5,0.7,1.1,0.9,1.7c0.2,0.6,0.3,1.1,0.3,1.6
		c0,0.6-0.1,1.3-0.4,2c-0.2,0.8-0.6,1.6-1.1,2.6c-0.5,1-1.2,2.1-2,3.3s-1.8,2.5-3,3.9c-1,0-1.8-0.2-2.6-0.5s-1.5-0.9-2.1-1.6
		c-0.6-0.7-1-1.6-1.3-2.6S244.2,17.5,244.2,16.1z"/>
	<path fill="#4A2A15" d="M266.4,75c-2.4,0-4.4-0.4-6.2-1.1c-1.8-0.7-3.2-1.8-4.4-3.2c-1.2-1.4-2-3.1-2.6-5.2c-0.6-2-0.8-4.4-0.8-7
		c0-2.5,0.3-4.9,0.9-7.3c0.6-2.4,1.5-4.7,2.5-6.9s2.3-4.3,3.7-6.1c1.4-1.9,2.9-3.5,4.5-4.9c1.6-1.4,3.2-2.5,4.9-3.3
		c1.7-0.8,3.3-1.2,4.9-1.2c3.4,0,5.9,0.8,7.7,2.5c1.8,1.6,2.7,4.2,2.7,7.6c0,2-0.3,4-1,5.8c-0.6,1.8-1.7,3.5-3.1,5s-3.3,2.8-5.6,4
		c-2.3,1.2-5.1,2.1-8.5,2.9c0,1.1,0.1,2.1,0.2,2.9c0.1,0.8,0.4,1.6,0.7,2.1c0.3,0.6,0.8,1,1.4,1.3c0.6,0.3,1.4,0.5,2.3,0.5
		c1.7,0,3.4-0.3,5.3-1c1.8-0.7,3.7-1.6,5.5-2.9s3.6-2.7,5.3-4.5c1.7-1.7,3.3-3.7,4.7-5.8c0.6,0,1.1,0.1,1.6,0.3
		c0.5,0.2,0.8,0.4,1.2,0.7s0.6,0.6,0.7,1c0.2,0.4,0.3,0.8,0.3,1.1c0,0.9-0.2,1.9-0.7,3.1c-0.5,1.1-1.2,2.3-2,3.5
		c-0.9,1.2-1.9,2.5-3.1,3.8s-2.5,2.5-3.9,3.7c-1.4,1.2-2.9,2.3-4.5,3.4c-1.6,1-3.2,2-4.9,2.8c-1.7,0.8-3.3,1.4-5,1.9
		C269.7,74.8,268,75,266.4,75z M273.5,42.3c0-1-0.2-1.8-0.5-2.4c-0.4-0.6-0.8-0.8-1.4-0.8c-0.3,0-0.7,0.2-1.2,0.6s-0.9,1.1-1.4,1.9
		c-0.5,0.8-0.9,1.9-1.3,3.2c-0.4,1.3-0.6,2.8-0.8,4.5c1.4-0.2,2.5-0.6,3.3-1.1c0.9-0.5,1.5-1,2-1.7s0.8-1.3,1-2S273.5,43,273.5,42.3
		z"/>
	<path fill="#4A2A15" d="M326.3,40.7c0,1.9-0.2,3.8-0.6,5.8s-0.9,4-1.6,6c-0.7,2-1.5,3.9-2.5,5.8s-2.1,3.7-3.3,5.4
		c-1.2,1.7-2.5,3.3-3.9,4.7s-2.8,2.7-4.3,3.7c-1.5,1-3,1.9-4.6,2.4c-1.6,0.6-3.2,0.9-4.8,0.9c-2,0-3.7-0.3-5.2-1s-2.8-1.8-3.8-3.2
		s-1.8-3.3-2.3-5.5c-0.5-2.2-0.8-4.9-0.8-8c0-3,0.2-6.1,0.6-9.3s0.9-6.3,1.6-9.5c0.7-3.1,1.5-6.2,2.5-9.2c1-3,2-5.8,3.2-8.5
		c1.2-2.7,2.4-5.1,3.8-7.4s2.8-4.2,4.2-5.8c1.5-1.6,3-2.9,4.5-3.8c1.5-0.9,3.1-1.4,4.7-1.4c1,0,1.9,0.1,2.6,0.4
		c0.8,0.3,1.4,0.6,2,1.2c0.5,0.5,1,1.2,1.3,2c0.3,0.8,0.4,1.8,0.4,3c0,0.7-0.1,1.4-0.3,2.3c-0.2,0.9-0.6,1.9-1,3s-1.1,2.4-1.9,3.9
		s-1.7,3.1-2.9,5c-1.1,1.9-2.5,3.9-4,6.2c-1.5,2.3-3.3,4.8-5.3,7.6c-0.2,1.5-0.5,3.1-0.7,4.7c-0.2,1.6-0.4,3.2-0.5,4.7
		s-0.3,2.9-0.3,4.2c-0.1,1.3-0.1,2.4-0.1,3.2c0,2.1,0,3.8,0.1,5.1c0.1,1.3,0.2,2.3,0.3,3s0.3,1.2,0.5,1.4c0.2,0.2,0.5,0.3,0.8,0.3
		c0.6,0,1.2-0.2,1.9-0.7c0.7-0.5,1.3-1.1,2-1.9c0.7-0.8,1.3-1.7,1.9-2.8c0.6-1,1.1-2.1,1.6-3.3c0.5-1.2,0.8-2.3,1.1-3.5
		c0.3-1.2,0.4-2.3,0.4-3.4c0-0.9-0.1-1.7-0.2-2.4c-0.1-0.7-0.4-1.2-0.7-1.7c-0.3-0.5-0.8-0.9-1.4-1.2c-0.6-0.3-1.3-0.6-2.2-0.9
		c-0.1-0.4-0.2-0.8-0.2-1.2c0-0.4-0.1-0.7-0.1-1.1c0-1.3,0.3-2.5,0.8-3.7c0.5-1.2,1.2-2.2,2.1-3.1c0.9-0.9,1.9-1.6,3.1-2.2
		c1.2-0.5,2.4-0.8,3.7-0.8c2.6,0,4.6,0.8,5.9,2.5C325.7,34.3,326.3,37,326.3,40.7z"/>
	<path fill="#4A2A15" d="M347.7,62.8c-0.8,2.2-1.6,4.1-2.6,5.5c-0.9,1.5-1.9,2.6-2.8,3.5c-1,0.9-1.9,1.5-2.9,1.8
		c-1,0.3-1.9,0.5-2.7,0.5c-1.4,0-2.7-0.3-3.9-0.9s-2.2-1.4-3.1-2.5c-0.9-1.1-1.5-2.5-2-4.2c-0.5-1.7-0.7-3.6-0.7-5.8
		c0-2.4,0.3-4.9,0.9-7.3c0.6-2.4,1.5-4.8,2.6-7c1.1-2.2,2.3-4.3,3.8-6.2c1.4-1.9,3-3.6,4.6-5c1.6-1.4,3.3-2.5,5-3.3
		c1.7-0.8,3.4-1.2,5-1.2c0.7,0,1.2,0.1,1.6,0.2c0.4,0.1,0.7,0.3,0.9,0.5l0.3-5.7c0.4-0.4,0.9-0.7,1.5-1c0.6-0.2,1.2-0.3,1.9-0.3
		c1.7,0,3.1,0.3,4.4,0.8c1.3,0.5,2.3,1.1,3.2,1.9s1.5,1.6,2,2.5c0.4,0.9,0.7,1.8,0.7,2.7c0,0.6-0.1,1.5-0.2,2.7
		c-0.2,1.1-0.4,2.4-0.8,3.8c-0.9,3.1-1.6,5.8-2.2,8.1c-0.6,2.3-1.1,4.3-1.5,6c-0.4,1.7-0.6,3.1-0.8,4.2c-0.2,1.1-0.3,2-0.3,2.6
		c0,0.5,0,0.9,0.1,1.2c0,0.3,0.1,0.5,0.2,0.7c0.1,0.2,0.2,0.3,0.4,0.3c0.2,0,0.3,0.1,0.5,0.1c0.5,0,1.2-0.2,2-0.7
		c0.9-0.5,1.9-1.2,3-2.2c1.1-1,2.4-2.3,3.8-3.9s2.9-3.5,4.4-5.6c0.5,0,1,0.1,1.4,0.2c0.4,0.2,0.8,0.4,1.1,0.6s0.6,0.6,0.8,1
		c0.2,0.4,0.3,0.8,0.3,1.2c0,0.8-0.2,1.7-0.7,2.8c-0.5,1-1.1,2.2-1.9,3.3s-1.8,2.4-2.8,3.6c-1.1,1.2-2.2,2.5-3.5,3.6
		s-2.5,2.3-3.8,3.3c-1.3,1-2.6,2-3.8,2.8c-1.3,0.8-2.4,1.4-3.6,1.9c-1.1,0.5-2.1,0.7-3,0.7c-1.1,0-2-0.1-2.9-0.4
		c-0.9-0.2-1.6-0.7-2.2-1.3c-0.6-0.6-1.1-1.4-1.4-2.5c-0.3-1-0.5-2.3-0.5-3.9c0-0.5,0-1.1,0.1-1.8C347.5,64.3,347.6,63.6,347.7,62.8
		z M350.9,37.8c-1.2,0.8-2.4,1.8-3.5,3.2c-1.1,1.3-2.2,2.9-3,4.5c-0.9,1.7-1.6,3.5-2.1,5.4c-0.5,1.9-0.8,3.8-0.8,5.7
		c0,0.9,0.1,1.6,0.2,2.1c0.1,0.5,0.3,0.9,0.5,1.2c0.2,0.3,0.5,0.5,0.8,0.5c0.3,0.1,0.6,0.1,1,0.1c0.7,0,1.4-0.2,2-0.7s1.3-1,1.9-1.8
		L350.9,37.8z"/>
	<path fill="#4A2A15" d="M394.6,36.9c1.4,0.4,2.6,0.8,3.5,1.2c0.9,0.4,1.6,0.8,2.1,1.2c0.5,0.4,0.9,0.9,1,1.3s0.3,1,0.3,1.6
		c0,1-0.2,2.1-0.7,3.3c-0.5,1.2-1.1,2.6-1.9,4.1c-0.6,1.1-1.1,2.2-1.6,3.4c-0.5,1.1-1,2.2-1.3,3.3c-0.4,1-0.7,2-0.9,2.9
		s-0.3,1.6-0.3,2.2c0,0.7,0.1,1.3,0.3,1.7s0.7,0.7,1.3,0.7c0.5,0,1-0.2,1.7-0.5c0.7-0.3,1.4-0.8,2.2-1.4c0.8-0.6,1.7-1.3,2.6-2.2
		c0.9-0.8,1.8-1.8,2.8-2.8s1.9-2.2,2.8-3.4c0.9-1.2,1.8-2.5,2.7-3.9c0.6,0,1.2,0.1,1.7,0.3c0.5,0.2,0.9,0.4,1.3,0.7
		c0.4,0.3,0.6,0.6,0.8,1c0.2,0.4,0.3,0.7,0.3,1.1c0,0.8-0.2,1.7-0.7,2.8c-0.5,1.1-1.2,2.3-2,3.5c-0.8,1.2-1.8,2.5-3,3.9
		c-1.2,1.3-2.4,2.6-3.7,3.9c-1.3,1.3-2.7,2.5-4.1,3.6c-1.4,1.1-2.9,2.1-4.3,3c-1.4,0.9-2.8,1.5-4.1,2s-2.6,0.8-3.7,0.8
		c-3,0-5.3-0.7-6.9-2c-1.6-1.3-2.4-3.4-2.4-6.2c0-1.1,0.1-2.2,0.4-3.3c0.2-1.2,0.5-2.3,0.9-3.4c0.3-1.1,0.7-2.2,1.1-3.3
		c0.4-1.1,0.8-2.1,1.1-3c0.3-0.9,0.6-1.7,0.9-2.5c0.2-0.7,0.4-1.3,0.4-1.7c0-0.6-0.3-1.1-0.8-1.4c-0.5-0.4-1.3-0.8-2.4-1.2
		c-0.8,1.4-1.5,2.8-2.2,3.9c-0.7,1.2-1.3,2.3-2,3.3c-0.7,1-1.3,2-2,2.9c-0.7,0.9-1.5,1.8-2.3,2.7c-0.6,0-1.2-0.1-1.7-0.3
		c-0.5-0.2-0.9-0.5-1.2-0.8c-0.3-0.3-0.6-0.8-0.8-1.2c-0.2-0.5-0.3-0.9-0.3-1.5c0-0.4,0.1-0.8,0.2-1.2s0.3-0.8,0.5-1.1
		c0.6-0.9,1.2-1.8,1.8-2.5c0.5-0.8,1.1-1.6,1.6-2.3c0.5-0.8,1-1.6,1.4-2.4c0.4-0.8,0.9-1.8,1.3-2.8c-0.4-0.4-0.7-1-1-1.6
		c-0.3-0.6-0.4-1.4-0.4-2.4c0-1.1,0.3-2.3,0.8-3.6s1.2-2.5,2.1-3.7c0.9-1.2,1.8-2.4,2.9-3.5s2.2-2.1,3.4-2.9c1.2-0.8,2.3-1.5,3.4-2
		s2.2-0.8,3.1-0.8c0.8,0,1.6,0.1,2.3,0.3s1.3,0.5,1.8,0.8c0.5,0.4,0.9,0.8,1.1,1.3s0.4,1.1,0.4,1.8c0,0.7-0.1,1.3-0.3,2
		c-1.2,0.6-2.3,1.3-3.2,2.1c-1,0.8-1.8,1.7-2.4,2.8c0.5,0.3,1.2,0.6,2.1,0.9C392.9,36.4,393.7,36.7,394.6,36.9z"/>
</g>
<g>
	<path fill="#DF9055" d="M61.3,21.8c2.9-3.4,5-5.5,5-5.5s-0.2-0.9,0.9-1.8c1-0.9,3.6-2.9,7.4-3.6c3.8-0.7,4.9-1.4,8.9-1.3
		s9,2.2,12.4,3.4c3.3,1.1,2.8-0.1,4,0.7c1.3,0.8,4,2.2,5,3.1c1,0.9,2,3.4,2.5,4.1c0.5,0.7,7,7.3,7.5,9.4s1.2,9.5,0.5,12.8
		c-0.7,3.3-0.9,4.4-1.5,6s-0.5,2.1-0.5,2.3c-0.1,0.3-5.1,6.9-6,7.7s-7.1,7.4-10.1,8.6c-3.1,1.3-4.4,1.4-4.4,1.4l-1.2,1
		c0,0-9.9,2.5-15.4,0.6c-5.5-2-10.2-6-10.2-6s-6.7-3-9.3-10.6c-2.6-7.6-2.6-6.2-2.9-9.6c-0.2-3.4-0.2-5.1-0.2-5.1l-0.8-1.5
		c0,0,3.2-6.4,4.4-8.9S61.3,21.8,61.3,21.8z"/>
	<path fill="#4B2A13" d="M82.7,9.6c0.2,0,0.5,0,0.8,0c3.9,0.1,9,2.2,12.4,3.4c1.2,0.4,1.9,0.5,2.4,0.5c0.4,0,0.6-0.1,0.9-0.1
		c0.2,0,0.4,0.1,0.8,0.3c1.3,0.8,4,2.2,5,3.1c1,0.9,2,3.4,2.5,4.1c0.5,0.7,7,7.3,7.5,9.4c0.5,2.1,1.2,9.5,0.5,12.8s-0.9,4.4-1.5,6
		c-0.6,1.5-0.5,2.1-0.5,2.3c-0.1,0.3-5.1,6.9-6,7.7c-0.8,0.9-7.1,7.4-10.1,8.6c-3.1,1.3-4.4,1.4-4.4,1.4l-1.2,1
		c0,0-5.2,1.3-10.1,1.3c-1.9,0-3.8-0.2-5.3-0.7c-5.5-2-10.2-6-10.2-6s-6.7-3-9.3-10.6c-2.6-7.6-2.6-6.2-2.9-9.6s-0.2-5.1-0.2-5.1
		l-0.8-1.5c0,0,3.2-6.4,4.4-8.9c1.2-2.5,3.9-7,3.9-7c2.9-3.4,5-5.5,5-5.5s-0.2-0.9,0.9-1.8c1-0.9,3.6-2.9,7.4-3.6
		C78.2,10.3,79.4,9.6,82.7,9.6 M82.7,4.5C82.7,4.5,82.7,4.5,82.7,4.5c-2.8,0-4.4,0.4-6.2,0.8c-0.8,0.2-1.7,0.4-2.8,0.6
		c-5.1,0.9-8.4,3.4-10,4.9c-1,0.9-1.7,2-2.1,3.1c-1,1-2.5,2.6-4.3,4.8c-0.2,0.2-0.3,0.4-0.4,0.6c-0.3,0.5-3,4.8-4.2,7.5
		c-1.1,2.4-4.3,8.8-4.3,8.8c-0.7,1.5-0.7,3.3,0.1,4.7l0.2,0.4c0,1,0.1,2.4,0.2,4.2c0.2,2.6,0.4,3.4,1.3,5.6c0.4,1,1,2.5,1.9,5.2
		c2.7,8.1,9.1,12.1,11.3,13.3c1.5,1.2,6,4.6,11.2,6.5c2,0.7,4.3,1,7.1,1c5.5,0,11.1-1.4,11.3-1.5c0.7-0.2,1.4-0.5,1.9-0.9l0.3-0.2
		c1-0.3,2.3-0.7,4.1-1.4c2.6-1.1,6.2-4,11.6-9.5l0.3-0.3c0.1-0.1,6.5-7.6,7.2-9.7c0.2-0.7,0.3-1.3,0.3-1.6l0,0
		c0-0.1,0.1-0.2,0.1-0.4c0.7-1.8,1-3.1,1.5-5.6l0.2-1.2c0.9-4.4,0-12.7-0.5-15.1c-0.5-2.3-2.3-4.7-7.6-10.5
		c-0.3-0.3-0.5-0.6-0.7-0.7c-0.1-0.1-0.2-0.4-0.3-0.5c-0.7-1.5-1.6-3.3-3.1-4.5c-1-0.8-2.4-1.7-4.3-2.7c-0.5-0.3-1-0.5-1.3-0.8
		c-1.1-0.7-2.3-1-3.4-1c-0.4,0-0.7,0-0.9,0.1c-0.1,0-0.4-0.1-0.8-0.2c-0.6-0.2-1.3-0.4-2-0.7C92,6.2,87.6,4.6,83.7,4.5
		C83.3,4.5,83,4.5,82.7,4.5L82.7,4.5z"/>
	<path fill="#4B2A13" stroke="#4B2A13" stroke-width="3.0729" stroke-linejoin="round" stroke-miterlimit="10" d="M98.8,31.8
		c-1.2,0.4-2.8,1.4-2.8,1.9s0.1,2.7,0.5,3c0.4,0.3,2.8,1.2,3.6-0.1c0.9-1.3,1.2-2.6,1.9-2.7s0-3.5,0-3.5L98.8,31.8z"/>
	<path fill="#4B2A13" stroke="#4B2A13" stroke-width="3.0729" stroke-linejoin="round" stroke-miterlimit="10" d="M70.5,27.9
		c-0.4,1.2-1.2,1.8-0.4,2.5c0.7,0.7,2.2,1,2.2,1l4.1-1l-0.7-2.5c0,0,0.3-4.7-2.6-3.6S70.5,27.9,70.5,27.9z"/>
	<path fill="#4B2A13" stroke="#4B2A13" stroke-width="3.0729" stroke-linejoin="round" stroke-miterlimit="10" d="M71.6,52.5
		c0.4,0.3,1.5,0.5,1.5,0.5l0.3-1.9l-1.2-0.9l-1,0.1L71.6,52.5z"/>
	<path fill="#4B2A13" stroke="#4B2A13" stroke-width="3.0729" stroke-linejoin="round" stroke-miterlimit="10" d="M87.1,66.4
		c1.3,0.4,2.7-0.3,2.7-0.3l1.2-2l-1.2-2.1l-2.4-0.1L85.7,63l1.4,2.9V66.4z"/>
	<polygon fill="#4B2A13" stroke="#4B2A13" stroke-width="3.0729" stroke-linejoin="round" stroke-miterlimit="10" points="
		96.3,55.2 97.1,55.2 96.7,54 96,54.5 96,54.9 	"/>
	<path fill="#4B2A13" stroke="#4B2A13" stroke-width="3.0729" stroke-linejoin="round" stroke-miterlimit="10" d="M89.6,14.1
		c-0.3-0.1-1.7,0.1-1.7,0.1l-1,1.5l-0.5,2.1l1.2,1.8c0,0,0.3,1.9,3.8,0.2c3.5-1.7,0.9-3.5,0.9-3.5L89.6,14.1z"/>
	<path fill="#4B2A13" stroke="#4B2A13" stroke-width="3.0729" stroke-linejoin="round" stroke-miterlimit="10" d="M59.4,41.1
		c0,0-0.4,2.1,0,2.2c0.4,0.1,0.4,0.1,0.4,0.1l0.5-1.4l-0.5-1.5L59.4,41.1z"/>
	<polygon fill="#4B2A13" stroke="#4B2A13" stroke-width="3.0729" stroke-linejoin="round" stroke-miterlimit="10" points="
		84.3,42.7 85.7,44 86.4,43 85.4,42.7 	"/>
</g>
<g>
	<path fill="#DF9055" d="M125.8,21.8c2.9-3.4,5-5.5,5-5.5s-0.2-0.9,0.9-1.8c1-0.9,3.6-2.9,7.4-3.6c3.8-0.7,4.9-1.4,8.9-1.3
		c3.9,0.1,9,2.2,12.4,3.4s2.8-0.1,4,0.7c1.3,0.8,4,2.2,5,3.1c1,0.9,2,3.4,2.5,4.1c0.5,0.7,7,7.3,7.5,9.4s1.2,9.5,0.5,12.8
		c-0.7,3.3-0.9,4.4-1.5,6c-0.6,1.5-0.5,2.1-0.5,2.3s-5.1,6.9-6,7.7c-0.8,0.9-7.1,7.4-10.1,8.6s-4.4,1.4-4.4,1.4l-1.2,1
		c0,0-9.9,2.5-15.4,0.6s-10.2-6-10.2-6s-6.7-3-9.3-10.6s-2.6-6.2-2.9-9.6s-0.2-5.1-0.2-5.1l-0.8-1.5c0,0,3.2-6.4,4.4-8.9
		S125.8,21.8,125.8,21.8z"/>
	<path fill="#4B2A13" d="M147.2,9.6c0.2,0,0.5,0,0.8,0c3.9,0.1,9,2.2,12.4,3.4c1.2,0.4,1.9,0.5,2.4,0.5c0.4,0,0.6-0.1,0.9-0.1
		c0.2,0,0.4,0.1,0.8,0.3c1.3,0.8,4,2.2,5,3.1c1,0.9,2,3.4,2.5,4.1c0.5,0.7,7,7.3,7.5,9.4c0.5,2.1,1.2,9.5,0.5,12.8
		c-0.7,3.3-0.9,4.4-1.5,6c-0.6,1.5-0.5,2.1-0.5,2.3c-0.1,0.3-5.1,6.9-6,7.7s-7.1,7.4-10.1,8.6c-3.1,1.3-4.4,1.4-4.4,1.4l-1.2,1
		c0,0-5.2,1.3-10.1,1.3c-1.9,0-3.8-0.2-5.3-0.7c-5.5-2-10.2-6-10.2-6s-6.7-3-9.3-10.6c-2.6-7.6-2.6-6.2-2.9-9.6
		c-0.2-3.4-0.2-5.1-0.2-5.1l-0.8-1.5c0,0,3.2-6.4,4.4-8.9c1.2-2.5,3.9-7,3.9-7c2.9-3.4,5-5.5,5-5.5s-0.2-0.9,0.9-1.8
		c1-0.9,3.6-2.9,7.4-3.6C142.7,10.3,143.9,9.6,147.2,9.6 M147.2,4.5C147.2,4.5,147.2,4.5,147.2,4.5c-2.8,0-4.4,0.4-6.2,0.8
		c-0.8,0.2-1.7,0.4-2.8,0.6c-5.1,0.9-8.4,3.4-10,4.9c-1,0.9-1.7,2-2.1,3.1c-1,1-2.5,2.6-4.3,4.8c-0.2,0.2-0.3,0.4-0.4,0.6
		c-0.3,0.5-3,4.8-4.2,7.5c-1.1,2.4-4.3,8.8-4.3,8.8c-0.7,1.5-0.7,3.3,0.1,4.7l0.2,0.4c0,1,0.1,2.4,0.2,4.2c0.2,2.6,0.4,3.4,1.3,5.6
		c0.4,1,1,2.5,1.9,5.2c2.7,8.1,9.1,12.1,11.3,13.3c1.5,1.2,6,4.6,11.2,6.5c2,0.7,4.3,1,7.1,1c5.5,0,11.1-1.4,11.3-1.5
		c0.7-0.2,1.4-0.5,1.9-0.9l0.3-0.2c1-0.3,2.3-0.7,4.1-1.4c2.6-1.1,6.2-4,11.6-9.5l0.3-0.3c0.1-0.1,6.5-7.6,7.2-9.7
		c0.2-0.7,0.3-1.3,0.3-1.6l0,0c0-0.1,0.1-0.2,0.1-0.4c0.7-1.8,1-3.1,1.5-5.6l0.2-1.2c0.9-4.4,0-12.7-0.5-15.1
		c-0.5-2.3-2.3-4.7-7.6-10.5c-0.3-0.3-0.5-0.6-0.7-0.7c-0.1-0.1-0.2-0.4-0.3-0.5c-0.7-1.5-1.6-3.3-3.1-4.5c-1-0.8-2.4-1.7-4.3-2.7
		c-0.5-0.3-1-0.5-1.3-0.8c-1.1-0.7-2.3-1-3.4-1c-0.4,0-0.7,0-0.9,0.1c-0.1,0-0.4-0.1-0.8-0.2c-0.6-0.2-1.3-0.4-2-0.7
		c-3.5-1.2-7.8-2.8-11.8-2.9C147.8,4.5,147.5,4.5,147.2,4.5L147.2,4.5z"/>
	<path fill="#4B2A13" stroke="#4B2A13" stroke-width="3.0729" stroke-linejoin="round" stroke-miterlimit="10" d="M163.3,31.8
		c-1.2,0.4-2.8,1.4-2.8,1.9s0.1,2.7,0.5,3c0.4,0.3,2.8,1.2,3.6-0.1c0.9-1.3,1.2-2.6,1.9-2.7s0-3.5,0-3.5L163.3,31.8z"/>
	<path fill="#4B2A13" stroke="#4B2A13" stroke-width="3.0729" stroke-linejoin="round" stroke-miterlimit="10" d="M135,27.9
		c-0.4,1.2-1.2,1.8-0.4,2.5c0.7,0.7,2.2,1,2.2,1l4.1-1l-0.7-2.5c0,0,0.3-4.7-2.6-3.6C134.7,25.2,135,27.9,135,27.9z"/>
	<path fill="#4B2A13" stroke="#4B2A13" stroke-width="3.0729" stroke-linejoin="round" stroke-miterlimit="10" d="M136.1,52.5
		c0.4,0.3,1.5,0.5,1.5,0.5l0.3-1.9l-1.2-0.9l-1,0.1L136.1,52.5z"/>
	<path fill="#4B2A13" stroke="#4B2A13" stroke-width="3.0729" stroke-linejoin="round" stroke-miterlimit="10" d="M151.6,66.4
		c1.3,0.4,2.7-0.3,2.7-0.3l1.2-2l-1.2-2.1l-2.4-0.1l-1.7,1.2l1.4,2.9V66.4z"/>
	<polygon fill="#4B2A13" stroke="#4B2A13" stroke-width="3.0729" stroke-linejoin="round" stroke-miterlimit="10" points="
		160.8,55.2 161.6,55.2 161.2,54 160.5,54.5 160.5,54.9 	"/>
	<path fill="#4B2A13" stroke="#4B2A13" stroke-width="3.0729" stroke-linejoin="round" stroke-miterlimit="10" d="M154.1,14.1
		c-0.3-0.1-1.7,0.1-1.7,0.1l-1,1.5l-0.5,2.1l1.2,1.8c0,0,0.3,1.9,3.8,0.2c3.5-1.7,0.9-3.5,0.9-3.5L154.1,14.1z"/>
	<path fill="#4B2A13" stroke="#4B2A13" stroke-width="3.0729" stroke-linejoin="round" stroke-miterlimit="10" d="M123.9,41.1
		c0,0-0.4,2.1,0,2.2c0.4,0.1,0.4,0.1,0.4,0.1l0.5-1.4l-0.5-1.5L123.9,41.1z"/>
	<polygon fill="#4B2A13" stroke="#4B2A13" stroke-width="3.0729" stroke-linejoin="round" stroke-miterlimit="10" points="
		148.8,42.7 150.2,44 150.9,43 149.9,42.7 	"/>
</g>
<g>
</g>
<g>
</g>
<g>
</g>
<g>
</g>
<g>
</g>
<g>
</g>
</svg>
