<?xml version="1.0" encoding="utf-8"?>
<!-- Generator: Adobe Illustrator 18.1.1, SVG Export Plug-In . SVG Version: 6.00 Build 0)  -->
<svg version="1.2" baseProfile="tiny" id="Réteg_1"
	 xmlns="http://www.w3.org/2000/svg" xmlns:xlink="http://www.w3.org/1999/xlink" x="0px" y="0px" viewBox="0 0 410.4 75.5"
	 xml:space="preserve">
<g>
	<polyline fill="#3C2613" points="184.6,49.9 172.7,54.6 171.5,62.3 184.6,56.1 184.6,50.5 	"/>
	<polyline fill="#3C2613" points="184.6,49.9 172.2,54.8 170.8,62.9 184.6,56.4 184.6,50.5 	"/>
	<g>
		<path fill="#3C2613" d="M181.3,52.7c0.7-6.1,1.4-11.6,2.1-16.4s1.5-9.2,2.3-13c0.8-3.8,1.8-7,2.8-9.7c1-2.7,2.2-5,3.5-6.7
			c1.3-1.7,2.7-3,4.4-3.9c1.6-0.8,3.4-1.3,5.5-1.3c1,0,2,0.1,2.8,0.4c0.8,0.3,1.6,0.7,2.2,1.2c0.6,0.6,1.1,1.3,1.4,2.2
			c0.3,0.9,0.5,1.9,0.5,3.2c0,0.7-0.1,1.5-0.2,2.3c-0.1,0.8-0.3,1.7-0.6,2.7c-0.3,1-0.7,2.1-1.1,3.3c-0.5,1.2-1,2.6-1.7,4.1
			s-1.5,3.2-2.4,5.1c-0.9,1.9-2,3.9-3.2,6.3c-0.5,1.1-1.1,2.2-1.6,3.5c-0.5,1.3-1,2.6-1.4,3.9s-0.8,2.6-1.1,3.9
			c-0.3,1.3-0.6,2.4-0.7,3.5l6.5-2.7c0.5-1,1-2.1,1.6-3.1s1.2-2,1.8-2.9c1.1-1.5,2.1-2.8,3-3.8c0.9-1,1.8-1.8,2.6-2.5
			c0.8-0.6,1.5-1.1,2.2-1.3c0.7-0.3,1.4-0.4,2-0.4c1.2,0,2.2,0.2,3.1,0.7c0.9,0.4,1.6,1,2.2,1.8c0.6,0.7,1,1.5,1.3,2.4
			c0.3,0.9,0.4,1.8,0.4,2.7c0,0.7,0,1.4-0.1,2c-0.1,0.6-0.3,1.1-0.5,1.6c-0.3,0.5-0.7,1-1.2,1.4c-0.5,0.5-1.2,1-2,1.5
			s-1.9,1.1-3.1,1.7s-2.6,1.4-4.3,2.2c0,2.6,0.1,4.9,0.2,6.7s0.3,3.3,0.6,4.4c0.3,1.1,0.6,1.9,1,2.4s0.9,0.7,1.5,0.7
			c0.6,0,1.4-0.3,2.2-0.8c0.8-0.5,1.8-1.4,2.8-2.5c1.1-1.1,2.3-2.6,3.6-4.4c1.4-1.8,2.9-3.9,4.6-6.3c0.5,0,0.9,0.1,1.4,0.2
			c0.5,0.1,0.9,0.3,1.2,0.6c0.4,0.3,0.6,0.6,0.9,0.9s0.3,0.8,0.3,1.3c0,0.7-0.2,1.6-0.7,2.6c-0.4,1.1-1.1,2.2-1.8,3.5
			c-0.8,1.3-1.7,2.6-2.7,3.9c-1.1,1.4-2.2,2.7-3.4,4c-1.2,1.3-2.5,2.6-3.8,3.8s-2.7,2.2-4,3.1s-2.6,1.6-3.9,2.1
			c-1.3,0.5-2.5,0.8-3.6,0.8c-1.6,0-2.9-0.3-4-0.8c-1.1-0.5-2-1.4-2.7-2.6s-1.2-2.8-1.5-4.7c-0.3-1.9-0.5-4.2-0.5-7
			c0-1.2,0-2.4,0.1-3.7c0.1-1.2,0.2-2.4,0.3-3.5l-4.4,1.8c-0.1,1.1-0.2,2.2-0.3,3.3c-0.1,1.1-0.1,2.3-0.2,3.7s-0.1,2.8-0.1,4.4
			c0,1.6-0.1,3.4-0.1,5.5c-0.5,0.6-1.3,1-2.1,1.4s-1.9,0.5-3,0.5c-0.9,0-1.8-0.1-2.7-0.4s-1.7-0.6-2.4-1.1c-0.7-0.5-1.4-1.1-2-1.7
			s-1.1-1.4-1.5-2.1s-0.8-1.6-1-2.4c-0.2-0.8-0.4-1.7-0.4-2.5c0-1.5,0.2-3.1,0.7-4.9C179.2,56.7,180,54.8,181.3,52.7z"/>
		<path fill="#3C2613" d="M226.9,52.1c-0.4-0.9-0.7-1.9-0.8-3c-0.1-1.1-0.2-2.1-0.2-3.1c0-1,0.2-2,0.7-3.2c0.4-1.2,1-2.3,1.8-3.5
			s1.6-2.3,2.6-3.4c1-1.1,2-2.1,3.1-3c1.1-0.9,2.2-1.6,3.3-2.1c1.1-0.5,2.2-0.8,3.2-0.8c1.1,0,2,0.1,2.7,0.4
			c0.6,0.3,1.1,0.7,1.5,1.3c0.3,0.5,0.5,1.2,0.6,2c0.1,0.8,0.1,1.6,0.1,2.6c0,0.6-0.1,1.4-0.3,2.2s-0.4,1.7-0.8,2.6
			s-0.7,1.9-1.1,2.9c-0.4,1-0.8,2-1.3,3c-0.7,1.7-1.3,3.2-1.8,4.4s-0.9,2.4-1.3,3.3c-0.3,1-0.6,1.8-0.7,2.5
			c-0.2,0.7-0.2,1.3-0.2,1.9c0,0.5,0.1,0.9,0.4,1.1c0.2,0.2,0.6,0.3,1,0.3c0.3,0,0.9-0.2,1.6-0.6c0.7-0.4,1.6-1.1,2.6-2.1
			s2.2-2.2,3.6-3.8c1.4-1.6,2.9-3.5,4.5-5.8c0.5,0,0.9,0.1,1.4,0.3s0.9,0.4,1.2,0.8c0.4,0.3,0.6,0.7,0.9,1.1
			c0.2,0.4,0.3,0.9,0.3,1.4c0,0.8-0.2,1.7-0.7,2.7c-0.5,1.1-1.1,2.2-1.9,3.4c-0.8,1.2-1.7,2.5-2.8,3.7c-1.1,1.3-2.2,2.5-3.5,3.8
			c-1.2,1.2-2.6,2.4-3.9,3.5c-1.4,1.1-2.7,2-4.1,2.9c-1.4,0.8-2.7,1.5-4,2c-1.3,0.5-2.5,0.7-3.6,0.7c-1.4,0-2.6-0.2-3.6-0.5
			c-1-0.3-1.8-0.8-2.4-1.5c-0.6-0.7-1-1.5-1.3-2.5s-0.4-2.2-0.4-3.5c0-1.1,0.1-2.1,0.2-3.2c0.1-1.1,0.3-2.2,0.6-3.3
			c0.3-1.1,0.7-2.4,1.1-3.6C225.8,55,226.3,53.6,226.9,52.1z M239.5,15c0-2,0.1-3.7,0.3-5c0.2-1.4,0.5-2.5,0.9-3.3
			c0.4-0.8,0.9-1.5,1.5-1.8c0.6-0.4,1.3-0.6,2.1-0.6c0.7,0,1.3,0.1,2,0.3c0.7,0.2,1.3,0.5,1.9,0.9s1.2,0.8,1.7,1.3
			c0.5,0.5,1,1,1.4,1.6c0.4,0.5,0.7,1.1,0.9,1.7c0.2,0.6,0.3,1.1,0.3,1.6c0,0.6-0.1,1.3-0.4,2c-0.2,0.8-0.6,1.6-1.1,2.6
			c-0.5,1-1.2,2.1-2,3.3s-1.8,2.5-3,3.9c-1,0-1.8-0.2-2.6-0.5s-1.5-0.9-2.1-1.6c-0.6-0.7-1-1.6-1.3-2.6S239.5,16.4,239.5,15z"/>
		<path fill="#3C2613" d="M261.7,73.9c-2.4,0-4.4-0.4-6.2-1.1c-1.8-0.7-3.2-1.8-4.4-3.2c-1.2-1.4-2-3.1-2.6-5.2
			c-0.6-2-0.8-4.4-0.8-7c0-2.5,0.3-4.9,0.9-7.3c0.6-2.4,1.5-4.7,2.5-6.9s2.3-4.3,3.7-6.1c1.4-1.9,2.9-3.5,4.5-4.9
			c1.6-1.4,3.2-2.5,4.9-3.3c1.7-0.8,3.3-1.2,4.9-1.2c3.4,0,5.9,0.8,7.7,2.5c1.8,1.6,2.7,4.2,2.7,7.6c0,2-0.3,4-1,5.8
			c-0.6,1.8-1.7,3.5-3.1,5s-3.3,2.8-5.6,4c-2.3,1.2-5.1,2.1-8.5,2.9c0,1.1,0.1,2.1,0.2,2.9c0.1,0.8,0.4,1.6,0.7,2.1
			c0.3,0.6,0.8,1,1.4,1.3c0.6,0.3,1.4,0.5,2.3,0.5c1.7,0,3.4-0.3,5.3-1c1.8-0.7,3.7-1.6,5.5-2.9s3.6-2.7,5.3-4.5
			c1.7-1.7,3.3-3.7,4.7-5.8c0.6,0,1.1,0.1,1.6,0.3c0.5,0.2,0.8,0.4,1.2,0.7s0.6,0.6,0.7,1c0.2,0.4,0.3,0.8,0.3,1.1
			c0,0.9-0.2,1.9-0.7,3.1c-0.5,1.1-1.2,2.3-2,3.5c-0.9,1.2-1.9,2.5-3.1,3.8s-2.5,2.5-3.9,3.7c-1.4,1.2-2.9,2.3-4.5,3.4
			c-1.6,1-3.2,2-4.9,2.8c-1.7,0.8-3.3,1.4-5,1.9C264.9,73.7,263.3,73.9,261.7,73.9z M268.7,41.2c0-1-0.2-1.8-0.5-2.4
			c-0.4-0.6-0.8-0.8-1.4-0.8c-0.3,0-0.7,0.2-1.2,0.6s-0.9,1.1-1.4,1.9c-0.5,0.8-0.9,1.9-1.3,3.2c-0.4,1.3-0.6,2.8-0.8,4.5
			c1.4-0.2,2.5-0.6,3.3-1.1c0.9-0.5,1.5-1,2-1.7s0.8-1.3,1-2S268.7,41.9,268.7,41.2z"/>
		<path fill="#3C2613" d="M321.6,39.6c0,1.9-0.2,3.8-0.6,5.8s-0.9,4-1.6,6c-0.7,2-1.5,3.9-2.5,5.8s-2.1,3.7-3.3,5.4
			c-1.2,1.7-2.5,3.3-3.9,4.7s-2.8,2.7-4.3,3.7c-1.5,1-3,1.9-4.6,2.4c-1.6,0.6-3.2,0.9-4.8,0.9c-2,0-3.7-0.3-5.2-1s-2.8-1.8-3.8-3.2
			s-1.8-3.3-2.3-5.5c-0.5-2.2-0.8-4.9-0.8-8c0-3,0.2-6.1,0.6-9.3s0.9-6.3,1.6-9.5c0.7-3.1,1.5-6.2,2.5-9.2c1-3,2-5.8,3.2-8.5
			c1.2-2.7,2.4-5.1,3.8-7.4s2.8-4.2,4.2-5.8c1.5-1.6,3-2.9,4.5-3.8c1.5-0.9,3.1-1.4,4.7-1.4c1,0,1.9,0.1,2.6,0.4
			c0.8,0.3,1.4,0.6,2,1.2c0.5,0.5,1,1.2,1.3,2c0.3,0.8,0.4,1.8,0.4,3c0,0.7-0.1,1.4-0.3,2.3c-0.2,0.9-0.6,1.9-1,3s-1.1,2.4-1.9,3.9
			s-1.7,3.1-2.9,5c-1.1,1.9-2.5,3.9-4,6.2c-1.5,2.3-3.3,4.8-5.3,7.6c-0.2,1.5-0.5,3.1-0.7,4.7c-0.2,1.6-0.4,3.2-0.5,4.7
			s-0.3,2.9-0.3,4.2c-0.1,1.3-0.1,2.4-0.1,3.2c0,2.1,0,3.8,0.1,5.1c0.1,1.3,0.2,2.3,0.3,3s0.3,1.2,0.5,1.4c0.2,0.2,0.5,0.3,0.8,0.3
			c0.6,0,1.2-0.2,1.9-0.7c0.7-0.5,1.3-1.1,2-1.9c0.7-0.8,1.3-1.7,1.9-2.8c0.6-1,1.1-2.1,1.6-3.3c0.5-1.2,0.8-2.3,1.1-3.5
			c0.3-1.2,0.4-2.3,0.4-3.4c0-0.9-0.1-1.7-0.2-2.4c-0.1-0.7-0.4-1.2-0.7-1.7c-0.3-0.5-0.8-0.9-1.4-1.2c-0.6-0.3-1.3-0.6-2.2-0.9
			c-0.1-0.4-0.2-0.8-0.2-1.2c0-0.4-0.1-0.7-0.1-1.1c0-1.3,0.3-2.5,0.8-3.7c0.5-1.2,1.2-2.2,2.1-3.1c0.9-0.9,1.9-1.6,3.1-2.2
			c1.2-0.5,2.4-0.8,3.7-0.8c2.6,0,4.6,0.8,5.9,2.5C320.9,33.2,321.6,35.9,321.6,39.6z"/>
		<path fill="#3C2613" d="M342.9,61.7c-0.8,2.2-1.6,4.1-2.6,5.5c-0.9,1.5-1.9,2.6-2.8,3.5c-1,0.9-1.9,1.5-2.9,1.8
			c-1,0.3-1.9,0.5-2.7,0.5c-1.4,0-2.7-0.3-3.9-0.9s-2.2-1.4-3.1-2.5c-0.9-1.1-1.5-2.5-2-4.2c-0.5-1.7-0.7-3.6-0.7-5.8
			c0-2.4,0.3-4.9,0.9-7.3c0.6-2.4,1.5-4.8,2.6-7c1.1-2.2,2.3-4.3,3.8-6.2c1.4-1.9,3-3.6,4.6-5c1.6-1.4,3.3-2.5,5-3.3
			c1.7-0.8,3.4-1.2,5-1.2c0.7,0,1.2,0.1,1.6,0.2c0.4,0.1,0.7,0.3,0.9,0.5l0.3-5.7c0.4-0.4,0.9-0.7,1.5-1c0.6-0.2,1.2-0.3,1.9-0.3
			c1.7,0,3.1,0.3,4.4,0.8c1.3,0.5,2.3,1.1,3.2,1.9s1.5,1.6,2,2.5c0.4,0.9,0.7,1.8,0.7,2.7c0,0.6-0.1,1.5-0.2,2.7
			c-0.2,1.1-0.4,2.4-0.8,3.8c-0.9,3.1-1.6,5.8-2.2,8.1c-0.6,2.3-1.1,4.3-1.5,6c-0.4,1.7-0.6,3.1-0.8,4.2c-0.2,1.1-0.3,2-0.3,2.6
			c0,0.5,0,0.9,0.1,1.2c0,0.3,0.1,0.5,0.2,0.7c0.1,0.2,0.2,0.3,0.4,0.3c0.2,0,0.3,0.1,0.5,0.1c0.5,0,1.2-0.2,2-0.7
			c0.9-0.5,1.9-1.2,3-2.2c1.1-1,2.4-2.3,3.8-3.9s2.9-3.5,4.4-5.6c0.5,0,1,0.1,1.4,0.2c0.4,0.2,0.8,0.4,1.1,0.6s0.6,0.6,0.8,1
			c0.2,0.4,0.3,0.8,0.3,1.2c0,0.8-0.2,1.7-0.7,2.8c-0.5,1-1.1,2.2-1.9,3.3s-1.8,2.4-2.8,3.6c-1.1,1.2-2.2,2.5-3.5,3.6
			s-2.5,2.3-3.8,3.3c-1.3,1-2.6,2-3.8,2.8c-1.3,0.8-2.4,1.4-3.6,1.9c-1.1,0.5-2.1,0.7-3,0.7c-1.1,0-2-0.1-2.9-0.4
			c-0.9-0.2-1.6-0.7-2.2-1.3c-0.6-0.6-1.1-1.4-1.4-2.5c-0.3-1-0.5-2.3-0.5-3.9c0-0.5,0-1.1,0.1-1.8
			C342.8,63.1,342.8,62.5,342.9,61.7z M346.1,36.7c-1.2,0.8-2.4,1.8-3.5,3.2c-1.1,1.3-2.2,2.9-3,4.5c-0.9,1.7-1.6,3.5-2.1,5.4
			c-0.5,1.9-0.8,3.8-0.8,5.7c0,0.9,0.1,1.6,0.2,2.1c0.1,0.5,0.3,0.9,0.5,1.2c0.2,0.3,0.5,0.5,0.8,0.5c0.3,0.1,0.6,0.1,1,0.1
			c0.7,0,1.4-0.2,2-0.7s1.3-1,1.9-1.8L346.1,36.7z"/>
		<path fill="#3C2613" d="M389.8,35.8c1.4,0.4,2.6,0.8,3.5,1.2c0.9,0.4,1.6,0.8,2.1,1.2c0.5,0.4,0.9,0.9,1,1.3s0.3,1,0.3,1.6
			c0,1-0.2,2.1-0.7,3.3c-0.5,1.2-1.1,2.6-1.9,4.1c-0.6,1.1-1.1,2.2-1.6,3.4c-0.5,1.1-1,2.2-1.3,3.3c-0.4,1-0.7,2-0.9,2.9
			s-0.3,1.6-0.3,2.2c0,0.7,0.1,1.3,0.3,1.7s0.7,0.7,1.3,0.7c0.5,0,1-0.2,1.7-0.5c0.7-0.3,1.4-0.8,2.2-1.4c0.8-0.6,1.7-1.3,2.6-2.2
			c0.9-0.8,1.8-1.8,2.8-2.8s1.9-2.2,2.8-3.4c0.9-1.2,1.8-2.5,2.7-3.9c0.6,0,1.2,0.1,1.7,0.3c0.5,0.2,0.9,0.4,1.3,0.7
			c0.4,0.3,0.6,0.6,0.8,1c0.2,0.4,0.3,0.7,0.3,1.1c0,0.8-0.2,1.7-0.7,2.8c-0.5,1.1-1.2,2.3-2,3.5c-0.8,1.2-1.8,2.5-3,3.9
			c-1.2,1.3-2.4,2.6-3.7,3.9c-1.3,1.3-2.7,2.5-4.1,3.6c-1.4,1.1-2.9,2.1-4.3,3c-1.4,0.9-2.8,1.5-4.1,2s-2.6,0.8-3.7,0.8
			c-3,0-5.3-0.7-6.9-2c-1.6-1.3-2.4-3.4-2.4-6.2c0-1.1,0.1-2.2,0.4-3.3c0.2-1.2,0.5-2.3,0.9-3.4c0.3-1.1,0.7-2.2,1.1-3.3
			c0.4-1.1,0.8-2.1,1.1-3c0.3-0.9,0.6-1.7,0.9-2.5c0.2-0.7,0.4-1.3,0.4-1.7c0-0.6-0.3-1.1-0.8-1.4c-0.5-0.4-1.3-0.8-2.4-1.2
			c-0.8,1.4-1.5,2.8-2.2,3.9c-0.7,1.2-1.3,2.3-2,3.3c-0.7,1-1.3,2-2,2.9c-0.7,0.9-1.5,1.8-2.3,2.7c-0.6,0-1.2-0.1-1.7-0.3
			c-0.5-0.2-0.9-0.5-1.2-0.8c-0.3-0.3-0.6-0.8-0.8-1.2c-0.2-0.5-0.3-0.9-0.3-1.5c0-0.4,0.1-0.8,0.2-1.2s0.3-0.8,0.5-1.1
			c0.6-0.9,1.2-1.8,1.8-2.5c0.5-0.8,1.1-1.6,1.6-2.3c0.5-0.8,1-1.6,1.4-2.4c0.4-0.8,0.9-1.8,1.3-2.8c-0.4-0.4-0.7-1-1-1.6
			c-0.3-0.6-0.4-1.4-0.4-2.4c0-1.1,0.3-2.3,0.8-3.6s1.2-2.5,2.1-3.7c0.9-1.2,1.8-2.4,2.9-3.5s2.2-2.1,3.4-2.9c1.2-0.8,2.3-1.5,3.4-2
			s2.2-0.8,3.1-0.8c0.8,0,1.6,0.1,2.3,0.3s1.3,0.5,1.8,0.8c0.5,0.4,0.9,0.8,1.1,1.3s0.4,1.1,0.4,1.8c0,0.7-0.1,1.3-0.3,2
			c-1.2,0.6-2.3,1.3-3.2,2.1c-1,0.8-1.8,1.7-2.4,2.8c0.5,0.3,1.2,0.6,2.1,0.9C388.1,35.3,389,35.5,389.8,35.8z"/>
	</g>
</g>
<g>
	<path fill="#3C2613" d="M20.7,75.4c-3.3,0-6.2-0.5-8.7-1.5c-2.6-1-4.7-2.5-6.5-4.5c-1.8-2-3.1-4.5-4-7.5c-0.9-3-1.4-6.4-1.4-10.2
		c0-3,0.3-6.1,0.9-9.2s1.4-6.1,2.5-9.1c1.1-3,2.3-5.9,3.8-8.7s3.1-5.4,4.9-7.9c1.8-2.5,3.7-4.7,5.7-6.8c2-2,4.1-3.8,6.2-5.3
		c2.1-1.5,4.3-2.6,6.5-3.4C32.7,0.4,34.8,0,36.9,0c2.4,0,4.5,0.3,6.2,0.9c1.7,0.6,3.1,1.5,4.2,2.6c1.1,1.1,1.9,2.5,2.4,4.1
		c0.5,1.6,0.8,3.5,0.8,5.6c0,1.5-0.2,3-0.5,4.5c-0.3,1.5-0.7,3-1.3,4.4c-0.5,1.4-1.2,2.7-2,3.9c-0.8,1.2-1.6,2.3-2.6,3.2
		c-0.9,0.9-2,1.6-3,2.1C40.1,31.7,39,32,37.8,32c-0.6,0-1.1,0-1.6-0.1s-0.8-0.2-1.2-0.3c-0.3-0.2-0.6-0.3-0.8-0.6
		c-0.2-0.2-0.4-0.5-0.5-0.8c0.3-0.6,0.5-1.3,0.7-2.1c0.2-0.8,0.4-1.5,0.6-2.3s0.3-1.6,0.5-2.4c0.1-0.8,0.3-1.6,0.4-2.3
		c0.1-0.7,0.2-1.4,0.2-2c0-0.6,0.1-1.1,0.1-1.4c0-1.1-0.1-2.1-0.3-2.9s-0.4-1.4-0.7-1.9c-0.3-0.5-0.6-0.8-1-1.1
		c-0.4-0.2-0.9-0.3-1.3-0.3c-0.7,0-1.4,0.3-2.2,0.8s-1.6,1.3-2.5,2.4c-0.9,1-1.7,2.2-2.6,3.6c-0.9,1.4-1.7,3-2.5,4.7
		s-1.6,3.5-2.3,5.5c-0.7,1.9-1.3,3.9-1.9,6s-0.9,4.2-1.3,6.3S17,45.2,17,47.3c0,2.3,0.2,4.3,0.5,6.1c0.4,1.7,1,3.2,1.8,4.3
		c0.9,1.2,2,2,3.4,2.6s3.2,0.9,5.3,0.9c2,0,4.2-0.4,6.4-1.1c2.2-0.8,4.4-1.8,6.5-3.2c2.1-1.3,4.2-3,6.1-4.8c1.9-1.9,3.6-3.9,5.1-6.2
		c0.5,0,1,0.1,1.4,0.2c0.5,0.1,0.8,0.3,1.2,0.5c0.3,0.2,0.6,0.6,0.8,1c0.2,0.4,0.3,0.9,0.3,1.5c0,0.9-0.3,2-0.8,3.3
		c-0.5,1.3-1.3,2.6-2.3,4c-1,1.4-2.2,2.9-3.5,4.4s-2.9,3-4.6,4.4c-1.7,1.4-3.5,2.8-5.4,4c-1.9,1.3-3.9,2.4-5.9,3.3
		c-2.1,0.9-4.2,1.7-6.3,2.3C25,75.1,22.9,75.4,20.7,75.4z"/>
</g>
<g>
	<path fill="#DF9055" d="M59.2,19.6c2.9-3.6,5.2-5.8,5.2-5.8s-0.2-1,0.9-1.9s3.7-3.1,7.6-3.8c3.9-0.7,5-1.5,9.1-1.4
		c4,0.1,9.2,2.4,12.6,3.5c3.4,1.2,2.8-0.1,4.1,0.7c1.3,0.8,4.1,2.3,5.1,3.2s2,3.6,2.5,4.3c0.5,0.7,7.2,7.6,7.7,9.9
		c0.5,2.2,1.2,10,0.5,13.5s-0.9,4.7-1.5,6.3c-0.6,1.6-0.5,2.2-0.6,2.4c-0.1,0.3-5.3,7.3-6.1,8.2c-0.9,0.9-7.2,7.8-10.4,9.1
		c-3.1,1.3-4.4,1.4-4.4,1.4l-1.3,1c0,0-10.2,2.7-15.7,0.6c-5.6-2.1-10.4-6.3-10.4-6.3s-6.8-3.1-9.5-11.2c-2.6-8-2.7-6.6-2.9-10.1
		S51.5,38,51.5,38l-0.8-1.6c0,0,3.3-6.8,4.5-9.4S59.2,19.6,59.2,19.6z"/>
	<path fill="#4B2A13" d="M81.4,8.6c0.2,0,0.5,0,0.8,0c3.9,0.1,9,2.2,12.3,3.4c1.2,0.4,1.9,0.5,2.4,0.5c0.4,0,0.6-0.1,0.9-0.1
		c0.2,0,0.4,0.1,0.8,0.3c1.3,0.8,4,2.2,5,3.1c1,0.9,1.9,3.4,2.5,4.1c0.5,0.7,6.9,7.3,7.4,9.4c0.5,2.1,1.2,9.5,0.5,12.8
		c-0.7,3.3-0.9,4.4-1.5,6c-0.6,1.5-0.5,2.1-0.5,2.3c-0.1,0.3-5.1,6.9-5.9,7.7c-0.8,0.9-7,7.4-10,8.6c-3.1,1.3-4.3,1.4-4.3,1.4
		l-1.2,1c0,0-5.1,1.3-10,1.3c-1.9,0-3.8-0.2-5.3-0.7c-5.4-2-10.1-6-10.1-6s-6.6-3-9.2-10.6c-2.5-7.6-2.6-6.2-2.9-9.6
		c-0.2-3.4-0.2-5.1-0.2-5.1l-0.8-1.5c0,0,3.2-6.4,4.4-8.9c1.2-2.5,3.9-7,3.9-7c2.9-3.4,5-5.5,5-5.5S65,14.4,66,13.5
		c1-0.9,3.6-2.9,7.4-3.6C76.9,9.2,78.1,8.6,81.4,8.6 M81.4,3.4C81.4,3.4,81.4,3.4,81.4,3.4c-2.8,0-4.4,0.4-6.2,0.8
		c-0.8,0.2-1.6,0.4-2.7,0.6c-5,0.9-8.4,3.4-10,4.9c-1,1-1.7,2-2.1,3.1c-1,1-2.5,2.6-4.3,4.8c-0.2,0.2-0.3,0.4-0.4,0.6
		c-0.3,0.5-2.9,4.8-4.2,7.5c-1.1,2.4-4.3,8.8-4.3,8.8c-0.7,1.5-0.7,3.2,0.1,4.7l0.2,0.4c0,1,0.1,2.4,0.2,4.2
		c0.2,2.6,0.4,3.3,1.2,5.6c0.4,1,1,2.5,1.9,5.2c2.7,8.1,9,12.1,11.2,13.3c1.5,1.2,6,4.6,11.2,6.5c2,0.7,4.3,1.1,7,1.1
		c5.5,0,11-1.4,11.3-1.5c0.7-0.2,1.4-0.5,1.9-1l0.3-0.2c1-0.3,2.3-0.7,4.1-1.4c2.6-1.1,6.2-4,11.5-9.5l0.3-0.3
		c0.1-0.1,6.4-7.6,7.2-9.7c0.2-0.7,0.3-1.3,0.3-1.6l0,0c0-0.1,0.1-0.2,0.1-0.4c0.7-1.8,1-3.1,1.5-5.6l0.2-1.2c0.9-4.4,0-12.6-0.5-15
		c-0.5-2.3-2.3-4.7-7.6-10.4c-0.3-0.3-0.5-0.6-0.7-0.7c-0.1-0.1-0.2-0.4-0.3-0.5c-0.7-1.5-1.6-3.3-3.1-4.5c-1-0.8-2.4-1.7-4.3-2.7
		c-0.5-0.3-1-0.5-1.3-0.8c-1.1-0.7-2.3-1-3.4-1c-0.3,0-0.6,0-0.9,0.1c-0.1,0-0.4-0.1-0.7-0.2c-0.6-0.2-1.3-0.4-2-0.7
		c-3.5-1.2-7.8-2.8-11.7-2.9C82,3.4,81.7,3.4,81.4,3.4L81.4,3.4z"/>
	<path fill="#4B2A13" stroke="#4B2A13" stroke-width="3.0729" stroke-linejoin="round" stroke-miterlimit="10" d="M97.4,30.8
		c-1.2,0.4-2.8,1.4-2.8,1.9c0,0.4,0.1,2.7,0.5,3c0.4,0.3,2.8,1.2,3.6-0.1c0.9-1.3,1.2-2.6,1.9-2.7c0.8-0.1,0-3.5,0-3.5L97.4,30.8z"
		/>
	<path fill="#4B2A13" stroke="#4B2A13" stroke-width="3.0729" stroke-linejoin="round" stroke-miterlimit="10" d="M88.2,13.1
		c-0.3-0.1-1.7,0.1-1.7,0.1l-1,1.5l-0.5,2.1l1.2,1.8c0,0,0.3,1.9,3.8,0.2c3.5-1.7,0.9-3.5,0.9-3.5L88.2,13.1z"/>
	<path fill="#4B2A13" stroke="#4B2A13" stroke-width="3.0729" stroke-linejoin="round" stroke-miterlimit="10" d="M69.2,26.9
		c-0.4,1.2-1.2,1.8-0.4,2.5c0.7,0.7,2.2,1,2.2,1l4.1-1l-0.7-2.5c0,0,0.3-4.7-2.6-3.6C68.9,24.2,69.2,26.9,69.2,26.9z"/>
	<polygon fill="#4B2A13" stroke="#4B2A13" stroke-width="3.0729" stroke-linejoin="round" stroke-miterlimit="10" points="83,41.7 
		84.3,43 85.1,42 84,41.7 	"/>
	<polygon fill="#4B2A13" stroke="#4B2A13" stroke-width="3.0729" stroke-linejoin="round" stroke-miterlimit="10" points="
		94.9,54.2 95.7,54.2 95.3,53 94.6,53.5 94.6,54 	"/>
	<path fill="#4B2A13" stroke="#4B2A13" stroke-width="3.0729" stroke-linejoin="round" stroke-miterlimit="10" d="M85.8,65.4
		c1.3,0.4,2.7-0.3,2.7-0.3l1.2-2l-1.2-2.1l-2.4-0.1L84.3,62l1.4,2.9V65.4z"/>
	<path fill="#4B2A13" stroke="#4B2A13" stroke-width="3.0729" stroke-linejoin="round" stroke-miterlimit="10" d="M70.3,51.5
		c0.4,0.3,1.5,0.5,1.5,0.5l0.3-1.9l-1.2-0.9l-1,0.1L70.3,51.5z"/>
	<path fill="#4B2A13" stroke="#4B2A13" stroke-width="3.0729" stroke-linejoin="round" stroke-miterlimit="10" d="M58,40.1
		c0,0-0.4,2.1,0,2.2c0.4,0.1,0.4,0.1,0.4,0.1l0.5-1.4l-0.5-1.5L58,40.1z"/>
</g>
<g>
	<path fill="#DF9055" d="M121.8,19.6c2.9-3.6,5.2-5.8,5.2-5.8s-0.2-1,0.9-1.9c1-1,3.7-3.1,7.6-3.8c3.9-0.7,5-1.5,9.1-1.4
		c4,0.1,9.2,2.4,12.6,3.5s2.8-0.1,4.1,0.7c1.3,0.8,4.1,2.3,5.1,3.2c1,0.9,2,3.6,2.5,4.3c0.5,0.7,7.2,7.6,7.7,9.9s1.2,10,0.5,13.5
		c-0.7,3.5-0.9,4.7-1.5,6.3c-0.6,1.6-0.5,2.2-0.6,2.4c-0.1,0.3-5.3,7.3-6.1,8.2c-0.9,0.9-7.2,7.8-10.4,9.1c-3.1,1.3-4.4,1.4-4.4,1.4
		l-1.3,1c0,0-10.2,2.7-15.7,0.6c-5.6-2.1-10.4-6.3-10.4-6.3s-6.8-3.1-9.5-11.2s-2.7-6.6-2.9-10.1c-0.2-3.5-0.2-5.4-0.2-5.4l-0.8-1.6
		c0,0,3.3-6.8,4.5-9.4S121.8,19.6,121.8,19.6z"/>
	<path fill="#4B2A13" d="M144.1,8.6c0.2,0,0.5,0,0.8,0c3.9,0.1,9,2.2,12.3,3.4c1.2,0.4,1.9,0.5,2.4,0.5c0.4,0,0.6-0.1,0.9-0.1
		c0.2,0,0.4,0.1,0.8,0.3c1.3,0.8,4,2.2,5,3.1c1,0.9,1.9,3.4,2.5,4.1c0.5,0.7,6.9,7.3,7.4,9.4c0.5,2.1,1.2,9.5,0.5,12.8
		c-0.7,3.3-0.9,4.4-1.5,6c-0.6,1.5-0.5,2.1-0.5,2.3c-0.1,0.3-5.1,6.9-5.9,7.7c-0.8,0.9-7,7.4-10,8.6c-3.1,1.3-4.3,1.4-4.3,1.4
		l-1.2,1c0,0-5.1,1.3-10,1.3c-1.9,0-3.8-0.2-5.3-0.7c-5.4-2-10.1-6-10.1-6s-6.6-3-9.2-10.6c-2.5-7.6-2.6-6.2-2.9-9.6
		c-0.2-3.4-0.2-5.1-0.2-5.1l-0.8-1.5c0,0,3.2-6.4,4.4-8.9c1.2-2.5,3.9-7,3.9-7c2.9-3.4,5-5.5,5-5.5s-0.2-0.9,0.9-1.8
		c1-0.9,3.6-2.9,7.4-3.6C139.6,9.2,140.8,8.6,144.1,8.6 M144.1,3.4C144.1,3.4,144.1,3.4,144.1,3.4c-2.8,0-4.4,0.4-6.2,0.8
		c-0.8,0.2-1.6,0.4-2.7,0.6c-5,0.9-8.4,3.4-10,4.9c-1,1-1.7,2-2.1,3.1c-1,1-2.5,2.6-4.3,4.8c-0.2,0.2-0.3,0.4-0.4,0.6
		c-0.3,0.5-2.9,4.8-4.2,7.5c-1.1,2.4-4.3,8.8-4.3,8.8c-0.7,1.5-0.7,3.2,0.1,4.7l0.2,0.4c0,1,0.1,2.4,0.2,4.2
		c0.2,2.6,0.4,3.3,1.2,5.6c0.4,1,1,2.5,1.9,5.2c2.7,8.1,9,12.1,11.2,13.3c1.5,1.2,6,4.6,11.2,6.5c2,0.7,4.3,1.1,7,1.1
		c5.5,0,11-1.4,11.3-1.5c0.7-0.2,1.4-0.5,1.9-1l0.3-0.2c1-0.3,2.3-0.7,4.1-1.4c2.6-1.1,6.2-4,11.5-9.5l0.3-0.3
		c0.1-0.1,6.4-7.6,7.2-9.7c0.2-0.7,0.3-1.3,0.3-1.6l0,0c0-0.1,0.1-0.2,0.1-0.4c0.7-1.8,1-3.1,1.5-5.6l0.2-1.2c0.9-4.4,0-12.6-0.5-15
		c-0.5-2.3-2.3-4.7-7.6-10.4c-0.3-0.3-0.5-0.6-0.7-0.7c-0.1-0.1-0.2-0.4-0.3-0.5c-0.7-1.5-1.6-3.3-3.1-4.5c-1-0.8-2.4-1.7-4.3-2.7
		c-0.5-0.3-1-0.5-1.3-0.8c-1.1-0.7-2.3-1-3.4-1c-0.3,0-0.6,0-0.9,0.1c-0.1,0-0.4-0.1-0.7-0.2c-0.6-0.2-1.3-0.4-2-0.7
		c-3.5-1.2-7.8-2.8-11.7-2.9C144.7,3.4,144.4,3.4,144.1,3.4L144.1,3.4z"/>
	<path fill="#4B2A13" stroke="#4B2A13" stroke-width="3.0729" stroke-linejoin="round" stroke-miterlimit="10" d="M160.1,30.8
		c-1.2,0.4-2.8,1.4-2.8,1.9c0,0.4,0.1,2.7,0.5,3c0.4,0.3,2.8,1.2,3.6-0.1s1.2-2.6,1.9-2.7c0.8-0.1,0-3.5,0-3.5L160.1,30.8z"/>
	<path fill="#4B2A13" stroke="#4B2A13" stroke-width="3.0729" stroke-linejoin="round" stroke-miterlimit="10" d="M150.9,13.1
		c-0.3-0.1-1.7,0.1-1.7,0.1l-1,1.5l-0.5,2.1l1.2,1.8c0,0,0.3,1.9,3.8,0.2c3.5-1.7,0.9-3.5,0.9-3.5L150.9,13.1z"/>
	<path fill="#4B2A13" stroke="#4B2A13" stroke-width="3.0729" stroke-linejoin="round" stroke-miterlimit="10" d="M131.9,26.9
		c-0.4,1.2-1.2,1.8-0.4,2.5s2.2,1,2.2,1l4.1-1l-0.7-2.5c0,0,0.3-4.7-2.6-3.6C131.5,24.2,131.9,26.9,131.9,26.9z"/>
	<polygon fill="#4B2A13" stroke="#4B2A13" stroke-width="3.0729" stroke-linejoin="round" stroke-miterlimit="10" points="
		145.6,41.7 147,43 147.7,42 146.7,41.7 	"/>
	<polygon fill="#4B2A13" stroke="#4B2A13" stroke-width="3.0729" stroke-linejoin="round" stroke-miterlimit="10" points="
		157.6,54.2 158.4,54.2 158,53 157.3,53.5 157.3,54 	"/>
	<path fill="#4B2A13" stroke="#4B2A13" stroke-width="3.0729" stroke-linejoin="round" stroke-miterlimit="10" d="M148.4,65.4
		c1.3,0.4,2.7-0.3,2.7-0.3l1.2-2l-1.2-2.1l-2.4-0.1L147,62l1.4,2.9V65.4z"/>
	<path fill="#4B2A13" stroke="#4B2A13" stroke-width="3.0729" stroke-linejoin="round" stroke-miterlimit="10" d="M132.9,51.5
		c0.4,0.3,1.5,0.5,1.5,0.5l0.3-1.9l-1.2-0.9l-1,0.1L132.9,51.5z"/>
	<path fill="#4B2A13" stroke="#4B2A13" stroke-width="3.0729" stroke-linejoin="round" stroke-miterlimit="10" d="M120.7,40.1
		c0,0-0.4,2.1,0,2.2s0.4,0.1,0.4,0.1l0.5-1.4l-0.5-1.5L120.7,40.1z"/>
</g>
<g>
</g>
<g>
</g>
<g>
</g>
<g>
</g>
<g>
</g>
<g>
</g>
</svg>
